<svg xmlns="http://www.w3.org/2000/svg" viewBox="0 0 300 60" fill="none">
  <g fill="#0096FF">
    <!-- 圆形图标 -->
    <circle cx="30" cy="30" r="28" fill="#0096FF"/>
    <!-- 内部白色图案 -->
    <path d="M30 12c-2.2 0-4 1.8-4 4s1.8 4 4 4c6.6 0 12 5.4 12 12 0 2.2 1.8 4 4 4s4-1.8 4-4c0-11-9-20-20-20z" fill="white"/>
    <circle cx="30" cy="44" r="4" fill="white"/>
    <circle cx="16" cy="30" r="4" fill="white"/>
    <!-- 又拍云文字 -->
    <path d="M80 18h8v6h-8v18h-8V24h-8v-6h8V8h8v10zm28 24h-8V28c0-2.2-1.8-4-4-4s-4 1.8-4 4v14h-8V18h8v2c1.6-1.6 3.8-2.6 6-2.6 5.5 0 10 4.5 10 10v14.6zm24-24h8v24h-8v-2c-1.6 1.6-3.8 2.6-6 2.6-5.5 0-10-4.5-10-10s4.5-10 10-10c2.2 0 4.4 1 6 2.6V18zm-6 18c3.3 0 6-2.7 6-6s-2.7-6-6-6-6 2.7-6 6 2.7 6 6 6zm48-18v24h-8v-2c-1.6 1.6-3.8 2.6-6 2.6-5.5 0-10-4.5-10-10V18h8v14c0 2.2 1.8 4 4 4s4-1.8 4-4V18h8z" fill="#0096FF"/>
  </g>
</svg>

